<!-- spiral.svg -->
<svg viewBox="0 0 100 100" xmlns="http://www.w3.org/2000/svg">
  <path
    d="
      M50,10
      A40,40 0 0,1 90,50
      A40,40 0 0,1 50,90
      A40,40 0 0,1 10,50
      A40,40 0 0,1 50,10
      M50,15
      A35,35 0 0,1 85,50
      A35,35 0 0,1 50,85
      A35,35 0 0,1 15,50
      A35,35 0 0,1 50,15
      M50,20
      A30,30 0 0,1 80,50
      A30,30 0 0,1 50,80
      A30,30 0 0,1 20,50
      A30,30 0 0,1 50,20
    "
    fill="none" stroke="black" stroke-width="2"
  />
</svg>